<svg xmlns="http://www.w3.org/2000/svg" width="232" height="69" viewBox="0 0 232 69"><g><g><g><g><g><path fill="#231f20" d="M198.946 22.185l-.826-.665a2.226 2.226 0 0 1 1.985-1.148 1.641 1.641 0 0 1 1.86 1.699c0 .895-.46 1.342-1.412 2.077l-.86.665h2.294v1.01h-3.947v-.93l1.778-1.457c.666-.54.919-.838.919-1.274a.654.654 0 0 0-.712-.7c-.356 0-.688.23-1.079.723z"/></g><g><path fill="#231f20" d="M207.877 23.169c0 .975-.46 1.687-1.148 1.687s-1.147-.735-1.147-1.71c0-.976.436-1.687 1.147-1.687.712 0 1.148.734 1.148 1.71zm.638 1.873c.45-.523.663-1.21.59-1.896a2.479 2.479 0 0 0-2.364-2.754 2.513 2.513 0 0 0-2.375 2.777 2.479 2.479 0 0 0 2.363 2.742 2.502 2.502 0 0 0 1.786-.869z"/></g><g><path fill="#231f20" d="M212.636 20.45h.804v5.37h-1.148v-4.177l-.93.23-.24-.965z"/></g><g><path fill="#231f20" d="M216.044 20.484h3.845v.883l-2.399 4.453h-1.33l2.386-4.315h-2.502z"/></g><g><path fill="#231f20" d="M202.355 28.402h.596v5.336h-.482l-3.442-4.372v4.372h-.586v-5.336h.563l3.362 4.28z"/></g><g><path fill="#231f20" d="M208.517 28.872a2.203 2.203 0 0 1 0 4.407 2.134 2.134 0 0 1-2.112-2.215 2.1 2.1 0 0 1 2.089-2.192zm-.023 4.957a2.685 2.685 0 0 0 2.731-2.765 2.766 2.766 0 1 0-2.731 2.765z"/></g><g><path fill="#231f20" d="M217.766 32.234c0 .609-.505.964-1.354.964h-1.79v-1.882h1.686c.93 0 1.412.333 1.412.918zm-.299-2.398c0 .62-.504.941-1.239.941h-1.572v-1.836h1.618c.734 0 1.148.344 1.148.884zm-1.136-1.434h-2.295v5.336h2.376c1.159 0 1.928-.54 1.928-1.458a1.331 1.331 0 0 0-1.148-1.296c.517-.196.854-.698.838-1.251 0-.815-.631-1.331-1.699-1.331z"/></g><g><path fill="#231f20" d="M225.03 28.952h-3.248v1.825h2.915v.55h-2.915v1.86h3.293v.55h-3.901v-5.335h3.856z"/></g><g><path fill="#231f20" d="M227.75 28.402h.607v4.785h3.007v.55h-3.615z"/></g><g><path fill="#231f20" d="M200.38 36.87c.861 0 1.39.471 1.39 1.148 0 .677-.574 1.148-1.458 1.148h-1.32V36.87zm2.043 1.148c0-1.056-.791-1.698-1.996-1.698h-1.997v5.336h.608v-1.882h1.297c1.136 0 2.088-.7 2.088-1.756z"/></g><g><path fill="#231f20" d="M208.85 36.87h-3.214v1.825h2.915v.54h-2.915v1.87h3.294v.55h-3.902V36.32h3.822z"/></g><g><path fill="#231f20" d="M215.253 39.705h-2.433l1.228-2.72zm-.918-3.42h-.563l-2.432 5.37h.62l.63-1.41h2.904l.63 1.41h.643z"/></g><g><path fill="#231f20" d="M221.478 41.749a2.766 2.766 0 0 1 0-5.52 2.766 2.766 0 0 1 2.077.85l-.413.435a2.295 2.295 0 0 0-1.676-.734 2.203 2.203 0 0 0 0 4.406 2.295 2.295 0 0 0 1.722-.768l.401.39a2.8 2.8 0 0 1-2.111.94z"/></g><g><path fill="#231f20" d="M230.067 36.87h-3.259v1.825h2.915v.54h-2.915v1.87h3.294v.55h-3.89V36.32h3.855z"/></g><g><path fill="#231f20" d="M200.38 44.754c.861 0 1.39.505 1.39 1.182 0 .677-.574 1.148-1.458 1.148h-1.32v-2.295h1.343zm2.043 1.182c0-1.067-.791-1.698-1.996-1.698h-1.997v5.336h.608v-1.882h1.297c1.136 0 2.088-.689 2.088-1.756z"/></g><g><path fill="#231f20" d="M208.643 45.775c0 .735-.574 1.148-1.366 1.148h-1.64v-2.169h1.64c.861 0 1.366.287 1.366 1.021zm.803 3.799l-1.64-2.18a1.572 1.572 0 0 0 1.445-1.561c0-.964-.78-1.595-1.928-1.595h-2.295v5.336h.608v-2.077h1.527l1.549 2.077z"/></g><g><path fill="#231f20" d="M212.745 44.238v5.336h-.608v-5.336z"/></g><g><path fill="#231f20" d="M215.528 44.754v-.54h4.166v.402l-3.443 4.395h3.443v.54h-4.28v-.402l3.442-4.395z"/></g><g><path fill="#231f20" d="M226.212 44.754h-3.26v1.825h2.915v.55h-2.914V49h3.293v.55h-3.89v-5.312h3.856z"/></g><g><path fill="#231f20" d="M92.135 49.574v-29.09h7.493v29.09z"/></g><g><path fill="#231f20" d="M103.38 35.045c0-8.986 6.805-15.045 15.745-15.045a13.415 13.415 0 0 1 12.691 7.758l-6.449 3.098a7 7 0 0 0-6.242-4.223 8.033 8.033 0 0 0-8.113 8.412 8.033 8.033 0 0 0 8.113 8.423 7.011 7.011 0 0 0 6.242-4.235l6.45 3.053a13.575 13.575 0 0 1-12.692 7.803c-8.963 0-15.745-6.105-15.745-15.044z"/></g><g><path fill="#231f20" d="M151.003 38.844h-7.367l3.706-10.947zm11.946 10.73l-10.89-29.09h-9.468l-10.947 29.09h8.503l1.435-4.189h11.475l1.434 4.189z"/></g><g><path fill="#231f20" d="M184.935 49.574l-12.301-16.835v16.835h-7.494v-29.09h7.712l11.785 16.065V20.484h7.539v29.09z"/></g><g><path fill="#8e1537" d="M68.702 43.813c5.635 12.015 7.448 22.56 5.451 23.708a1.457 1.457 0 0 1-.711.184c-3.064 0-9.399-7.666-15.194-18.36zm-25.52 1.94L32.313 56.584a24.683 24.683 0 0 0 10.867 4.476zm-20.851-5.59a24.776 24.776 0 0 0 4.659 11.132l11.177-11.131zm28.39 20.955a24.614 24.614 0 0 0 10.327-4.12 72.365 72.365 0 0 0 4.36 6.117 32.348 32.348 0 0 1-50.834-26.646V35.16l7.791-2.433h23.306l16.192-16.123a24.786 24.786 0 0 0-30.03.126l-1.607-7.964C43.084.98 59.613 3.084 70.11 13.844s12.192 27.337 4.089 39.999a90.314 90.314 0 0 0-3.672-9.536 24.845 24.845 0 0 0-3.443-22.366L50.652 38.374V61.06zm1.411-22.102l5.738-5.737a48.702 48.702 0 0 1 4.211 3.442s-4.705 8.951-6.208 11.131a28.77 28.77 0 0 1-3.752-1.388zM30.41 17.26c-6.46-2.697-12.21-4.602-14.757-4.992L15.182 0l13.426 8.274 1.801 8.94zM22.4 31.202l-8.984 2.754L0 27.277l10.695-6.174a74.417 74.417 0 0 0 11.75 10.099zM13.266 21.7l-.642-.643c-.367-.436-.77-.872-1.148-1.32l3.397-5.966h.597l.39.091h.264l.424.104.333.08.47.126.39.103.529.15.459.137 1.078.345c.18.047.356.104.528.172l.654.218.402.137c2.467.838 5.45 1.963 8.687 3.294l1.652.688.516.218a181.19 181.19 0 0 1 16.456 7.941l-3.65 3.638H25.006l-1.343-.952c-2.616-1.87-5.107-3.799-7.321-5.738-.333-.287-.654-.562-.964-.85l-.528-.493c-.298-.264-.643-.596-.872-.814-.23-.218-.448-.437-.666-.666z"/></g></g></g></g></g></svg>