<?xml version="1.0" encoding="utf-8"?>
<!-- Generator: Adobe Illustrator 21.0.0, SVG Export Plug-In . SVG Version: 6.00 Build 0)  -->
<svg version="1.1" id="Layer_1" xmlns="http://www.w3.org/2000/svg" xmlns:xlink="http://www.w3.org/1999/xlink" x="0px" y="0px"
	 viewBox="0 0 150 150" style="enable-background:new 0 0 150 150;" xml:space="preserve">
<style type="text/css">
	.st0{fill:#FFFFFF;}
</style>
<title>SN_IN_Logos_CMYK 2018</title>
<path class="st0" d="M115.4,90.5c-6.8,0-12.6,4.8-13.8,11.5l-8-0.6c0-4.4-3.2-8.1-7.5-9L88,75h0.1c5.1,0,9.3-4.1,9.3-9.3
	c0-5.1-4.1-9.3-9.3-9.3c-5.1,0-9.3,4.1-9.3,9.3c0,4.5,3.1,8.3,7.5,9.2l-1.8,17.5h-0.1c-5.1,0-9.3,4.1-9.3,9.2s4.1,9.3,9.2,9.3
	c4.5,0,8.4-3.3,9.2-7.7l7.9,0.6c0,0.3,0,0.5,0,0.8c0,7.7,6.3,14,14,14s14-6.3,14-14S123.2,90.6,115.4,90.5L115.4,90.5z"/>
<circle class="st0" cx="102.5" cy="42.9" r="9.3"/>
<path class="st0" d="M17.1,70.3c3.4,0,6.2-2.8,6.2-6.2c0-1.7-0.7-3.4-2-4.6l10.4-15.2c2.2,1,4.8,0,5.8-2.3c0.9-2,0.2-4.2-1.6-5.4
	l2.2-5.1c3.3,0.9,6.8-1.1,7.7-4.4s-1.1-6.8-4.4-7.7c-3.3-0.9-6.8,1.1-7.7,4.4c-0.7,2.7,0.4,5.6,2.8,7L34.3,36
	c-2.4-0.5-4.7,1-5.2,3.4c0,0.1,0,0.2,0,0.3l-7,0.4c-0.6-2.4-3-3.8-5.4-3.2s-3.8,3-3.2,5.4s3,3.8,5.4,3.2c1.7-0.4,3-1.9,3.3-3.7
	l7-0.4c0.2,0.8,0.6,1.4,1.1,2L19.9,58.5c-0.9-0.4-1.8-0.7-2.8-0.7c-3.4,0-6.2,2.8-6.2,6.2C10.9,67.5,13.7,70.3,17.1,70.3L17.1,70.3z
	"/>
<circle class="st0" cx="59" cy="137.5" r="6.2"/>
<path class="st0" d="M108.3,125.4c-1.9,0-3.7,1.3-4.2,3.2l-19.2-1.8c-0.1-3.4-3-6.1-6.5-6c-3.4,0.1-6.1,3-6,6.5c0.1,3.4,3,6.1,6.5,6
	c0.7,0,1.5-0.2,2.1-0.5l2.7,4.6c-1.9,1.6-2.1,4.5-0.4,6.4c1.6,1.9,4.5,2.1,6.4,0.4s2.1-4.5,0.4-6.4c-1.2-1.4-3.2-1.9-4.9-1.3
	l-2.8-4.6c1.1-0.9,1.9-2.1,2.2-3.5l19.2,1.8c0.3,2.4,2.4,4.2,4.8,3.9s4.2-2.4,3.9-4.8C112.4,127.1,110.5,125.4,108.3,125.4
	L108.3,125.4z"/>
<circle class="st0" cx="133.9" cy="61.9" r="4.4"/>
<circle class="st0" cx="63" cy="11.8" r="4.4"/>
<circle class="st0" cx="37.9" cy="68" r="7.8"/>
<circle class="st0" cx="18.1" cy="89.3" r="11"/>
<path class="st0" d="M62,107l1-13.9h0.2C71,93,77.2,86.7,77.1,79s-6.4-14-14.2-13.9c-1.5,0-3,0.3-4.4,0.7L52,50.3
	c2-1.3,2.5-4.1,1.2-6.1c-0.2-0.3-0.4-0.6-0.7-0.8l3.9-6.5c2.2,1.1,4.8,1.2,7.2,0.4l4,8.6c-3.2,2-4.2,6.2-2.2,9.4
	c2,3.2,6.2,4.2,9.4,2.2c3.2-2,4.2-6.2,2.2-9.4c-1.7-2.7-4.9-3.9-7.9-2.9l-4-8.6c4.4-2.6,5.9-8.3,3.3-12.7s-8.3-5.9-12.7-3.3
	s-5.9,8.3-3.3,12.7c0.6,1.1,1.5,2,2.5,2.8L51,42.5c-2.3-0.8-4.8,0.3-5.6,2.6s0.3,4.8,2.6,5.6c0.5,0.2,1,0.3,1.6,0.3
	c0.3,0,0.6,0,0.9-0.1L57,66.5c-6.9,3.4-9.8,11.8-6.4,18.7c2.1,4.2,6.1,7.1,10.7,7.7l-1,14c-4.9,0.3-8.8,4.3-8.8,9.3
	c0,0.1,0,0.3,0,0.4l-6.2,0.3c-0.5-4.5-3.2-8.5-7.2-10.7l3.5-7.5c2.4,0.6,4.8-0.9,5.3-3.2c0.6-2.4-0.9-4.8-3.2-5.3
	c-2.4-0.6-4.8,0.9-5.3,3.2C38,95.1,38.6,97,40.1,98l-3.5,7.5c-7.2-2.8-15.3,0.7-18.2,7.9c-2.8,7.2,0.7,15.3,7.9,18.2
	c7.2,2.8,15.3-0.7,18.2-7.9c0.6-1.6,1-3.3,1-5l6.3-0.4c1.2,5,6.1,8.1,11.1,6.9s8.1-6.1,6.9-11.1C69,110.4,65.9,107.5,62,107L62,107z
	"/>
<path class="st0" d="M134.3,71.6c-3.3,0-6.3,1.7-8,4.6l-10.1-4.8c0.8-2.3,0-4.8-1.9-6.3l8.4-14c0.9,0.4,1.8,0.7,2.8,0.7
	c3.5,0,6.3-2.8,6.3-6.2c0-3.5-2.8-6.3-6.2-6.3c-3.5,0-6.3,2.8-6.3,6.2c0,1.8,0.7,3.5,2.1,4.7l-8.5,14c-3-1.3-6.6,0.1-7.9,3.1
	s0.1,6.6,3.1,7.9c2.7,1.2,5.8,0.2,7.4-2.2l10.1,4.8c-1.8,4.8,0.7,10.1,5.6,11.9c4.8,1.8,10.1-0.7,11.9-5.6
	c1.8-4.8-0.7-10.1-5.6-11.9C136.4,71.7,135.3,71.5,134.3,71.6L134.3,71.6z"/>
<path class="st0" d="M86.2,35.5c7.1,0,13.1-5.3,13.9-12.4l5.4,0.1c0.5,2.4,2.8,3.9,5.2,3.5s3.9-2.8,3.5-5.2
	c-0.5-2.4-2.8-3.9-5.2-3.5c-1.7,0.3-3.1,1.7-3.5,3.5l-5.3-0.1c0-7.7-6.3-14-14.1-13.9s-14,6.3-13.9,14.1
	C72.2,29.2,78.5,35.5,86.2,35.5L86.2,35.5z"/>
</svg>
